<svg width="120" height="42" viewBox="0 0 120 42" fill="none" xmlns="http://www.w3.org/2000/svg">
<path d="M24.3689 14.3048C24.4169 14.1539 24.4424 14.0779 24.4904 13.927C24.8928 13.927 25.1766 13.6683 25.3404 13.1523C26.4784 9.56276 27.6179 5.97324 28.7559 2.38372H26.871C25.6637 5.97324 24.4565 9.56276 23.2492 13.1523C23.1688 13.3906 23.1603 13.5796 23.2238 13.719C23.2874 13.8585 23.4102 13.927 23.5938 13.927C23.5443 14.0779 23.5189 14.1539 23.4695 14.3048H20.0158C20.0709 14.1539 20.0977 14.0779 20.1528 13.927C20.3236 13.927 20.4917 13.8572 20.6583 13.7178C20.8235 13.5783 20.9491 13.3894 21.0339 13.151C22.4134 9.28508 23.7914 5.41789 25.1709 1.55196C25.2557 1.31359 25.2726 1.12467 25.2189 0.985196C25.1667 0.845723 25.065 0.775987 24.9154 0.775987C24.9704 0.625103 24.9973 0.549027 25.0523 0.398143H31.8778C31.834 0.549027 31.8114 0.625103 31.7677 0.775987C31.4133 0.775987 31.1591 1.03464 31.0052 1.55196C29.8573 5.41789 28.7093 9.28508 27.5614 13.151C27.4075 13.6683 27.5332 13.927 27.9356 13.927C27.8918 14.0779 27.8692 14.1539 27.8254 14.3048H24.3689Z" fill="white"/>
<path d="M37.188 7.03322C36.7588 8.99598 36.2307 11.116 35.0644 12.8644C34.2596 14.0702 33.1922 14.6827 31.975 14.6827C30.7579 14.6827 30.0096 14.0449 29.8232 12.8353C29.5281 10.9321 30.0985 8.8882 30.6266 7.05351C31.2408 4.9145 32.5229 0 35.721 0C38.8062 0 37.5114 5.55228 37.188 7.03322ZM35.0178 7.06238C35.3355 5.79065 35.6532 4.46946 35.7125 3.1711C35.7478 2.38878 35.4739 1.92852 35.1859 1.98685C33.8134 2.26706 33.1244 5.73739 32.7855 7.06238C32.4212 8.49261 31.9934 9.96214 31.9214 11.4215C31.8804 12.2609 32.0894 12.6958 32.5116 12.6958C32.9098 12.6958 33.3164 12.2736 33.6878 11.4418C34.3104 10.0484 34.6493 8.53192 35.0164 7.06238H35.0178Z" fill="white"/>
<path d="M37.3903 12.318C37.8181 12.2254 38.2361 11.8209 38.5848 11.1236C39.2301 9.83409 39.5294 8.35315 39.7963 6.94448C40.1493 5.14655 40.5009 3.34862 40.8538 1.55196C40.9004 1.31359 40.8835 1.1234 40.803 0.985196C40.7225 0.845723 40.6082 0.775987 40.4571 0.775987C40.4881 0.625103 40.5023 0.549027 40.5333 0.398143H46.6048C46.5836 0.549027 46.5737 0.625103 46.5526 0.775987C46.1982 0.775987 45.9835 1.03464 45.9087 1.55196C45.3905 5.14021 44.8723 8.72973 44.3555 12.318H45.1138C45.4258 12.318 45.6616 12.2647 45.8198 12.1595C45.7576 13.5111 45.7294 14.1856 45.6743 15.5373C45.4484 15.5613 45.3354 15.5728 45.1095 15.5968C45.1236 15.2127 45.0375 14.9046 44.854 14.6738C44.6704 14.4418 44.3725 14.3188 43.9574 14.3061H37.8195C37.4002 14.3188 37.0599 14.4418 36.7958 14.6738C36.5318 14.9058 36.3398 15.2139 36.2212 15.5968C36.0037 15.5728 35.8936 15.5613 35.6761 15.5373C36.0899 14.1869 36.2946 13.5111 36.6998 12.1595C36.8213 12.266 37.0387 12.318 37.3507 12.318H37.3903ZM41.8253 7.31091C41.5316 9.0074 41.1179 10.7901 40.2622 12.337H42.1514C42.6979 9.01881 43.2443 5.70064 43.7893 2.38372H42.6908C42.4028 4.0257 42.1133 5.66894 41.8253 7.31091Z" fill="white"/>
<path d="M52.5231 10.3379C52.4356 11.5818 52.0459 12.5961 51.3343 13.3835C50.6226 14.1709 49.8136 14.5639 48.9297 14.5639C48.6473 14.5639 48.2759 14.531 47.817 14.465C47.3582 14.3991 47.0927 14.3661 47.0193 14.3661C46.799 14.3661 46.6169 14.3928 46.4757 14.446C46.4517 13.3733 46.4432 12.837 46.4263 11.7643C46.5816 11.725 46.6592 11.7047 46.816 11.6654C46.9896 12.3007 47.5248 12.6189 48.4185 12.6189C49.6244 12.6189 50.2979 11.8442 50.4363 10.2948C50.5139 9.43388 50.4024 8.81766 50.1059 8.44743C49.8108 8.07719 49.4578 7.8908 49.0426 7.8908H48.5583C48.6332 7.20739 48.6713 6.86505 48.7461 6.18163H49.2742C49.6597 6.18163 50 6.0168 50.2922 5.6846C50.5831 5.35367 50.7624 4.79705 50.8344 4.016C50.9502 2.75822 50.5379 2.12805 49.6018 2.12805C48.9156 2.12805 48.4101 2.45264 48.0783 3.10183C47.9385 3.05364 47.8693 3.03082 47.7295 2.98264C48.0105 1.88588 48.1489 1.33813 48.4214 0.241371C48.5004 0.294625 48.6473 0.321251 48.8619 0.321251C48.9156 0.321251 49.1245 0.290821 49.4902 0.231228C49.8545 0.171635 50.1694 0.142473 50.4377 0.142473C51.1112 0.142473 51.683 0.464527 52.1702 1.10737C52.6573 1.75021 52.8691 2.62255 52.79 3.72438C52.7321 4.52064 52.533 5.20406 52.1843 5.77336C51.8355 6.34393 51.4613 6.72811 51.0674 6.92718C51.066 6.95127 51.0646 6.96268 51.0618 6.98677C51.5418 7.11863 51.9202 7.47619 52.1998 8.05817C52.4794 8.64015 52.5909 9.40091 52.5246 10.3404L52.5231 10.3379Z" fill="white"/>
<path d="M59.3033 11.721C59.124 12.8178 59.0322 13.3655 58.8445 14.4623C58.7103 14.3558 58.4293 14.3038 58.0001 14.3038H53.0201C53.03 14.1529 53.0342 14.0768 53.0441 13.9259C53.2149 13.9259 53.3632 13.8562 53.4874 13.718C53.6117 13.5785 53.6795 13.3896 53.6936 13.1512C53.9167 9.28403 54.1398 5.41684 54.3643 1.54838C54.3939 1.04501 54.2301 0.793957 53.8757 0.793957C53.8856 0.643073 53.8899 0.566997 53.8997 0.416113H58.0128C58.4731 0.416113 58.7682 0.36286 58.8981 0.257622C59.0591 1.3379 59.1424 1.87804 59.3118 2.95959C59.1664 3.01537 59.093 3.04327 58.9475 3.09906C58.8092 2.63499 58.5776 2.40423 58.25 2.40423H56.2987C56.2493 3.71527 56.2252 4.37079 56.1758 5.68183H57.938C58.1187 5.68183 58.2698 5.6159 58.3898 5.48277C58.5098 5.3509 58.5719 5.19115 58.5734 5.00603H58.9094C58.8953 6.34116 58.8882 7.00809 58.8727 8.34322H58.5254C58.5282 8.15811 58.4759 7.99835 58.3672 7.86648C58.2599 7.73462 58.1032 7.66742 57.8956 7.66742H56.1165C56.0586 9.21683 56.0007 10.7662 55.9429 12.3169H58.0354C58.4322 12.3169 58.7371 12.0786 58.9447 11.6018C59.0873 11.65 59.1593 11.6728 59.3019 11.721H59.3033Z" fill="white"/>
<path d="M69.629 14.3034H66.1739C66.1655 14.1525 66.1612 14.0764 66.1528 13.9255C66.3236 13.9255 66.4634 13.8558 66.5707 13.7176C66.678 13.5781 66.7246 13.3892 66.7091 13.1508C66.5622 10.7532 66.414 8.3555 66.2671 5.95911H66.2332C65.8421 7.75703 65.4341 9.55116 65.0062 11.3427H64.3271C63.727 9.55243 63.1453 7.7583 62.5819 5.95911H62.548C62.6073 8.35677 62.668 10.7544 62.7273 13.1508C62.733 13.4031 62.7965 13.5946 62.9151 13.7265C63.0351 13.8596 63.1791 13.9255 63.3514 13.9255C63.3556 14.0764 63.3585 14.1525 63.3627 14.3034H60.0361C60.0361 14.1525 60.0361 14.0764 60.0361 13.9255C60.2069 13.9255 60.351 13.8558 60.4653 13.7176C60.5811 13.5781 60.6376 13.3892 60.6362 13.1508C60.6136 9.28997 60.591 5.42911 60.5684 1.56826C60.5656 1.05221 60.3863 0.793552 60.0319 0.793552C60.0319 0.642668 60.0319 0.566592 60.0319 0.415708H62.6779C62.6892 0.799892 62.7358 1.12448 62.8191 1.38948C63.3698 3.14937 63.9374 4.90419 64.5248 6.65393H64.5756C64.9653 4.95617 65.3338 3.25334 65.6783 1.54797C65.7715 1.09786 65.8012 0.720012 65.7729 0.415708H68.419C68.4317 0.566592 68.4387 0.642668 68.4514 0.793552C68.3004 0.793552 68.1804 0.867092 68.09 1.01164C67.9996 1.15745 67.9629 1.34257 67.9813 1.56826C68.2961 5.42911 68.6124 9.28997 68.9273 13.1508C68.947 13.3892 69.0162 13.5781 69.1377 13.7176C69.2591 13.8571 69.4116 13.9255 69.5951 13.9255C69.6079 14.0764 69.6149 14.1525 69.6276 14.3034H69.629Z" fill="white"/>
<path d="M76.3336 11.721C76.3279 12.8178 76.3223 13.3655 76.3068 14.4623C76.1557 14.3558 75.8662 14.3038 75.4384 14.3038H70.4584C70.4443 14.1529 70.4372 14.0768 70.4231 13.9259C70.5939 13.9259 70.7309 13.8562 70.8325 13.718C70.9342 13.5785 70.9737 13.3896 70.9497 13.1512C70.5629 9.28403 70.1746 5.41684 69.7877 1.54838C69.7369 1.04501 69.5349 0.793957 69.1805 0.793957C69.1664 0.643073 69.1594 0.566997 69.1452 0.416113H73.2583C73.7186 0.416113 74.0052 0.36286 74.1182 0.257622C74.45 1.3379 74.618 1.87804 74.9597 2.95959C74.8228 3.01537 74.755 3.04327 74.618 3.09906C74.4062 2.63499 74.138 2.40423 73.8104 2.40423H71.8591C72.0172 3.71527 72.0963 4.37079 72.253 5.68183H74.0151C74.1959 5.68183 74.3371 5.6159 74.4359 5.48277C74.5347 5.3509 74.5714 5.19115 74.5446 5.00603H74.8807C75.0769 6.34116 75.1758 7.00809 75.372 8.34322H75.0247C74.9979 8.15811 74.9202 7.99835 74.7917 7.86648C74.6632 7.73462 74.4952 7.66742 74.2891 7.66742H72.51C72.6963 9.21683 72.8841 10.7662 73.0705 12.3169H75.1631C75.5598 12.3169 75.8267 12.0786 75.9594 11.6018C76.1105 11.65 76.1853 11.6728 76.3364 11.721H76.3336Z" fill="white"/>
<path d="M84.9734 14.3052H81.8868C81.8572 14.1543 81.8416 14.0783 81.812 13.9274C82.117 13.9274 82.237 13.7625 82.1692 13.4303C82.1424 13.2985 82.0958 13.126 82.028 12.9143C81.0396 9.76095 80.0753 6.60253 79.1363 3.43777H79.053C79.3368 6.62155 79.5966 9.80659 79.8296 12.9942C79.8536 13.2592 79.8719 13.4316 79.8875 13.5102C79.9383 13.7879 80.1162 13.9274 80.4212 13.9274C80.4494 14.0783 80.4636 14.1543 80.4918 14.3052H77.2203C77.1963 14.1543 77.185 14.0783 77.1609 13.9274C77.4786 13.9274 77.6354 13.7283 77.6325 13.3314C77.5789 9.02428 77.4589 4.72092 77.2711 0.417555H79.7293C79.6997 0.324995 79.8875 0.898101 80.3012 2.1356C80.8307 3.72052 81.3714 5.30417 81.9165 6.88401C82.4078 8.30536 82.9077 9.72671 83.4117 11.1455C83.7365 12.0597 84.0034 12.7964 84.2123 13.3505C84.3563 13.7346 84.5837 13.9261 84.8887 13.9261C84.9226 14.077 84.9395 14.1531 84.9734 14.3039V14.3052Z" fill="white"/>
<path d="M88.0665 14.4023C87.1713 14.4023 86.2606 14.363 85.3358 14.2831C85.3005 14.1322 85.2835 14.0561 85.2496 13.9052C85.652 13.9052 85.789 13.6276 85.6577 13.0709C84.7569 9.23671 83.856 5.40248 82.9538 1.56826C82.8973 1.32989 82.8013 1.14097 82.6671 1.00149C82.533 0.86202 82.3904 0.793552 82.2393 0.793552C82.204 0.642668 82.1871 0.566592 82.1532 0.415708H85.2059C85.2454 0.566592 85.2652 0.6414 85.3047 0.791016C85.1324 0.791016 85.0138 0.860752 84.9475 0.998957C84.8811 1.13716 84.8769 1.32482 84.9376 1.56192C85.2722 2.8755 85.4403 3.53228 85.7763 4.84586C85.8511 4.83318 85.9457 4.82684 86.0573 4.82558C88.7979 4.81924 90.1689 7.63658 90.6448 9.58412C90.9159 10.6948 91.283 12.087 90.6547 13.1977C90.2028 13.9965 89.3189 14.4023 88.0679 14.4023H88.0665ZM86.5501 6.81243C86.4357 6.81243 86.3467 6.81876 86.2804 6.83271C86.7534 8.68643 87.2278 10.5414 87.7008 12.3951C87.7884 12.4091 87.8872 12.4154 87.9945 12.4154C88.3673 12.4154 88.6045 12.1796 88.7005 11.7079C88.7965 11.2362 88.716 10.5351 88.4661 9.60441C87.9649 7.74309 87.3252 6.81243 86.5501 6.81243Z" fill="white"/>
<path d="M92.357 13.927C92.5038 13.927 92.6253 13.8636 92.7213 13.7381C92.8173 13.6126 92.8667 13.4693 92.8667 13.3108C92.8159 11.5294 92.6493 9.74918 92.3584 7.98675C90.986 7.24882 90.3534 5.6956 89.9482 4.4302C89.43 2.81359 89.4794 0.19658 92.0732 0.258708C93.0418 0.281531 94.0259 0.311962 94.9536 0.4172C95.0087 0.568084 95.0355 0.64416 95.0906 0.795044C94.7362 0.795044 94.6486 1.04736 94.8279 1.54946C96.2074 5.41666 97.5869 9.28512 98.9664 13.1523C99.0511 13.3907 99.1768 13.5796 99.342 13.7191C99.5072 13.8585 99.6766 13.927 99.8475 13.927C99.9026 14.0779 99.9294 14.154 99.9845 14.3049H96.5308C96.4814 14.154 96.4559 14.0779 96.4065 13.927C96.5901 13.927 96.7115 13.8547 96.7736 13.7089C96.8344 13.5631 96.8273 13.378 96.751 13.1523C96.2456 11.6485 95.7401 10.146 95.2346 8.64228H94.3634C94.5653 9.43727 94.77 10.4174 94.9691 11.5826C95.1682 12.7478 95.284 13.6557 95.3207 14.3049H92.4728C92.429 14.154 92.4064 14.0779 92.3612 13.927H92.357ZM94.1784 6.7353C94.3606 6.7353 94.4961 6.72896 94.5823 6.71502C94.0838 5.23154 93.584 3.74806 93.0856 2.26458C93.0376 2.2519 92.9048 2.24429 92.686 2.24429C91.8021 2.24429 91.5945 2.97969 92.0633 4.44922C92.549 5.97201 93.2536 6.73404 94.1784 6.73404V6.7353Z" fill="white"/>
<path d="M11.7349 40.0284H6.54449C6.61932 39.7976 6.65603 39.6822 6.73087 39.4527C7.3366 39.4527 7.76443 39.0584 8.01435 38.2697C9.75107 32.7923 11.4892 27.3135 13.2259 21.8361H10.3992C8.55655 27.3135 6.71392 32.7923 4.87271 38.2697C4.74987 38.6336 4.73575 38.9215 4.82894 39.1332C4.92213 39.345 5.1071 39.4515 5.38243 39.4515C5.30619 39.6822 5.26806 39.7976 5.19182 40.0271H0C0.0833063 39.7963 0.125665 39.681 0.208972 39.4502C0.46595 39.4502 0.718693 39.3437 0.970024 39.1319C1.21994 38.9202 1.40915 38.6311 1.53905 38.2672C3.64289 32.3663 5.74814 26.4653 7.85197 20.5643C7.98187 20.2004 8.00729 19.9114 7.93104 19.6996C7.85338 19.4879 7.7023 19.3814 7.4778 19.3814C7.56111 19.1506 7.60346 19.0352 7.68677 18.8045H17.9179C17.8501 19.0352 17.8177 19.1506 17.7499 19.3814C17.2176 19.3814 16.8349 19.7757 16.6005 20.5656C14.8497 26.4666 13.0974 32.3675 11.3466 38.2685C11.1122 39.0571 11.2986 39.4527 11.9029 39.4527C11.8351 39.6835 11.8027 39.7989 11.7349 40.0296V40.0284Z" fill="white"/>
<path d="M23.261 36.0861C22.7258 37.4821 22.1879 38.8768 21.6471 40.2702C21.4819 40.1079 21.0767 40.0281 20.4328 40.0281H12.9494C13.0143 39.7973 13.0482 39.6819 13.1131 39.4524C13.3701 39.4524 13.6158 39.3459 13.8488 39.1342C14.0818 38.9224 14.2484 38.6333 14.35 38.2707L19.2806 20.564C19.4938 19.7957 19.3357 19.4115 18.8034 19.4115C18.8683 19.1807 18.9022 19.0653 18.9672 18.8358H25.1318C25.8223 18.8358 26.2826 18.756 26.5127 18.5937C26.4125 19.9681 26.3151 21.3425 26.2233 22.717C25.9861 22.8019 25.8675 22.8438 25.6303 22.9287C25.5794 22.2212 25.3097 21.8675 24.8184 21.8675H21.8928C21.4621 23.5348 21.0315 25.2021 20.6008 26.8707H23.244C23.5151 26.8707 23.7636 26.7693 23.9896 26.5677C24.2141 26.3661 24.3595 26.1239 24.4273 25.8399H24.9328C24.5402 27.5377 24.1463 29.2354 23.7538 30.9332H23.2313C23.2977 30.6504 23.2723 30.407 23.1551 30.2054C23.0379 30.0038 22.8247 29.9024 22.514 29.9024H19.844C19.234 32.2671 18.6227 34.633 18.0127 36.9977H21.1571C21.753 36.9977 22.291 36.6338 22.764 35.906C22.9631 35.9783 23.0619 36.0151 23.261 36.0886V36.0861Z" fill="white"/>
<path d="M25.139 36.9967C25.7842 36.8547 26.4154 36.2385 26.9505 35.1747C27.9446 33.1955 28.3696 30.9474 28.827 28.7958C29.3805 26.052 29.934 23.3081 30.4875 20.5656C30.5609 20.2017 30.5383 19.9126 30.4197 19.6996C30.3011 19.4879 30.1303 19.3814 29.9044 19.3814C29.9524 19.1506 29.9764 19.0352 30.0244 18.8045H39.1245C39.0907 19.0352 39.0751 19.1506 39.0412 19.3814C38.5089 19.3814 38.1842 19.777 38.0656 20.5656C37.2438 26.0431 36.422 31.5193 35.6003 36.9967H36.7383C37.2085 36.9967 37.5629 36.9156 37.8015 36.7546C37.7112 38.4726 37.625 40.1907 37.5445 41.9087C37.2043 41.9455 37.0348 41.9632 36.6945 42C36.72 41.4129 36.5957 40.9438 36.3232 40.5901C36.0507 40.2363 35.6031 40.0487 34.9804 40.0296H25.7574C25.1277 40.0499 24.6137 40.2376 24.2141 40.5901C23.8145 40.9438 23.5223 41.4129 23.3373 42C23.0097 41.9632 22.8459 41.9455 22.5198 41.9087C23.0521 40.1919 23.5802 38.4739 24.1054 36.7546C24.2861 36.9169 24.6123 36.9967 25.0825 36.9967H25.139ZM31.8656 29.3562C31.3375 31.9415 30.8094 34.665 29.4511 37.0272H32.2892C33.1519 31.9631 34.0146 26.9002 34.8773 21.8361H33.231C32.7763 24.3428 32.3217 26.8495 31.8656 29.3562Z" fill="white"/>
<path d="M47.5224 20.5929C47.5521 20.2493 47.5026 19.9666 47.377 19.7447C47.2513 19.5228 47.0678 19.4112 46.8263 19.4112C46.8475 19.1805 46.8574 19.0651 46.8786 18.8356H51.2133C51.1992 19.0663 51.1921 19.1817 51.178 19.4112C50.9366 19.4112 50.7361 19.5177 50.5765 19.7295C50.417 19.9412 50.3252 20.2303 50.3012 20.5929C49.9101 26.485 49.5189 32.3771 49.1292 38.2704C49.1052 38.6343 49.1688 38.9222 49.3199 39.1339C49.4709 39.3457 49.6841 39.4522 49.9595 39.4522C49.9454 39.6829 49.9383 39.7983 49.9242 40.0278H44.954C44.9752 39.797 44.9851 39.6817 45.0063 39.4522C45.2816 39.4522 45.5118 39.3406 45.6953 39.1187C45.8789 38.8968 45.9862 38.6141 46.0144 38.2692C46.2686 35.287 46.5227 32.3061 46.7783 29.3239H46.7261C45.4567 31.9967 44.152 34.6543 42.8107 37.2979C42.7697 37.6859 42.7485 37.8799 42.709 38.2679C42.6709 38.6318 42.7217 38.9196 42.8643 39.1314C43.0069 39.3431 43.2159 39.4496 43.4912 39.4496C43.4686 39.6804 43.4574 39.7958 43.4333 40.0253H38.6566C38.6863 39.7945 38.7018 39.6791 38.7315 39.4496C39.2087 39.4496 39.4968 39.0553 39.5942 38.2666C40.3284 32.3746 41.0612 26.4825 41.7955 20.5891C41.8378 20.2455 41.7926 19.9628 41.6585 19.7409C41.5258 19.519 41.3465 19.4074 41.1205 19.4074C41.1502 19.1767 41.1657 19.0613 41.1954 18.8318H45.5541C45.5315 19.0625 45.5202 19.1779 45.4962 19.4074C45.2548 19.4074 45.0458 19.5139 44.8707 19.7257C44.6956 19.9374 44.5869 20.2265 44.5488 20.5891C44.2085 23.8033 43.8696 27.0175 43.5294 30.2305H43.607C44.7761 27.8163 45.9142 25.3908 47.0226 22.9538C47.2683 22.4086 47.4066 21.9433 47.4391 21.5591C47.4716 21.1711 47.4885 20.9771 47.5224 20.5891V20.5929Z" fill="white"/>
<path d="M62.8711 40.0272H57.6792C57.6821 39.7965 57.6835 39.6811 57.6877 39.4516C58.2934 39.4516 58.5984 39.0572 58.6055 38.2686C58.6295 35.4791 58.6535 32.6897 58.6761 29.9002H55.694C55.6163 32.6897 55.5401 35.4791 55.4624 38.2686C55.4526 38.6325 55.526 38.9203 55.6855 39.1321C55.8451 39.3438 56.0625 39.4503 56.3379 39.4503C56.3322 39.6811 56.3308 39.7965 56.3252 40.0259H51.1333C51.146 39.7952 51.1517 39.6798 51.1644 39.4503C51.4214 39.4503 51.6431 39.3438 51.8266 39.1321C52.0116 38.9203 52.1118 38.6312 52.1288 38.2686C52.4112 32.3765 52.695 26.4844 52.9774 20.5911C52.9943 20.2272 52.9322 19.9394 52.7882 19.7276C52.6456 19.5159 52.4606 19.4094 52.2361 19.4094C52.2488 19.1786 52.2544 19.0632 52.2671 18.8337H56.7939C56.7883 19.0632 56.7869 19.1773 56.7812 19.4068C56.5398 19.4068 56.3435 19.5133 56.1924 19.7238C56.0414 19.9356 55.9609 20.2221 55.951 20.5847C55.8931 22.6794 55.8352 24.7727 55.7773 26.8673H58.7001C58.7184 24.7727 58.7354 22.6794 58.7537 20.5847C58.7608 19.7986 58.4982 19.4068 57.9659 19.4068C57.9687 19.1773 57.9701 19.0632 57.9743 18.8337H62.5011C62.5054 19.0645 62.5068 19.1799 62.511 19.4094C61.9787 19.4094 61.7175 19.8037 61.7274 20.5924C61.7965 26.4844 61.8671 32.3765 61.9363 38.2699C61.9462 39.0585 62.2526 39.4528 62.8583 39.4528C62.8626 39.6836 62.864 39.799 62.8682 40.0285L62.8711 40.0272Z" fill="white"/>
<path d="M64.4157 20.6225C64.4044 20.2586 64.3182 19.9657 64.1587 19.7438C63.9991 19.5219 63.8071 19.4103 63.5812 19.4103C63.5755 19.1796 63.5727 19.0642 63.5671 18.8347H69.9732C70.6961 18.8347 71.1395 18.7637 71.3047 18.6229C71.652 20.0494 72.0022 21.4733 72.358 22.8984C72.1674 22.9834 72.0714 23.0252 71.8793 23.1102C71.5715 22.3621 71.114 21.988 70.5041 21.988H67.4599C67.5192 23.171 67.5799 24.3527 67.6392 25.5357C67.7564 25.5154 67.9004 25.504 68.0684 25.5053C72.1914 25.5294 73.3153 29.8568 73.5793 32.8124C73.7403 34.6192 73.6344 36.8051 72.4822 38.3608C71.5475 39.6237 69.8489 40.2196 68.1856 40.2108C66.8414 40.2032 65.4422 40.1537 64.0895 40.0282C64.0838 39.7974 64.081 39.682 64.0754 39.4525C64.6811 39.4525 64.9706 39.0176 64.9437 38.1491C64.7672 32.3077 64.5907 26.4651 64.4157 20.6237V20.6225ZM68.2054 28.5356C68.0458 28.5255 67.8933 28.5458 67.7917 28.5661C67.9357 31.4062 68.0783 34.2464 68.2223 37.0866C68.3508 37.1069 68.4977 37.117 68.6629 37.117C69.2488 37.117 69.6908 36.7582 69.9831 36.0405C70.2753 35.3229 70.3586 34.2375 70.2782 32.8111C70.2076 31.566 69.9774 28.6536 68.2068 28.5356H68.2054Z" fill="white"/>
<path d="M78.8223 32.2954C77.3623 28.3191 75.9617 24.3289 74.6217 20.3185C74.4311 19.7124 74.1275 19.4094 73.7082 19.4094C73.687 19.1786 73.6757 19.0632 73.6531 18.8337H78.1319C78.1601 19.0645 78.1756 19.1799 78.2039 19.4094C77.817 19.4094 77.6476 19.6021 77.6942 19.985C77.7139 20.1473 77.7803 20.4301 77.8947 20.8345C78.5978 23.2132 79.3137 25.588 80.0451 27.9603H80.0959C80.2385 25.5043 80.3642 23.0496 80.4729 20.5924C80.4786 20.2893 80.4786 20.1067 80.4701 20.0471C80.4108 19.6224 80.1637 19.4106 79.7274 19.4106C79.6963 19.1799 79.6808 19.0645 79.6497 18.835H83.767C83.8052 19.0658 83.8235 19.1811 83.8616 19.4106C83.4903 19.4106 83.287 19.6934 83.2474 20.2602C82.9114 24.2782 82.5062 28.29 82.0331 32.2979C81.8199 34.0477 81.5884 35.7961 81.3512 37.5433C81.186 39.0091 79.9618 40.348 78.4001 40.3632C77.8001 40.3683 77.1689 40.1806 76.6733 39.9689C75.9984 39.6811 75.4039 39.3933 74.938 39.0902C75.2698 37.9098 75.5932 36.7268 75.9052 35.5425C76.1283 35.6275 76.2398 35.6693 76.4643 35.7543C76.4573 35.8557 76.4601 35.9774 76.4742 36.1182C76.501 36.3806 76.5985 36.6241 76.7651 36.846C76.9331 37.0679 77.1647 37.2213 77.4033 37.2403C77.7323 37.2657 77.9935 37.0996 78.0895 36.8155C78.146 36.6748 78.1912 36.5125 78.2251 36.3299C78.434 34.9872 78.6345 33.6419 78.8237 32.2979L78.8223 32.2954Z" fill="white"/>
<path d="M95.2065 25.9904C95.935 28.7431 96.1737 33.2253 91.8304 33.2367C91.6539 33.2367 91.5015 33.2265 91.3744 33.2062C91.7076 34.8939 92.0408 36.5815 92.374 38.2704C92.4461 38.6343 92.5887 38.9221 92.8061 39.1338C93.0222 39.3456 93.2777 39.4521 93.5714 39.4521C93.618 39.6828 93.642 39.7982 93.6886 40.0277H88.4417C88.4022 39.797 88.3824 39.6816 88.3429 39.4521C88.5998 39.4521 88.7975 39.3456 88.9331 39.1338C89.07 38.9221 89.1053 38.633 89.0404 38.2704C88.0012 32.4087 86.9634 26.5458 85.9242 20.6841C85.7731 19.8359 85.4328 19.4111 84.9005 19.4111C84.8609 19.1804 84.8412 19.065 84.8017 18.8355C85.9694 18.7138 87.1385 18.6567 88.3062 18.6542C89.9596 18.6504 91.4859 19.3706 92.5378 20.4889C94.0261 22.0687 94.6812 24.0201 95.2036 25.9917L95.2065 25.9904ZM92.0662 25.96C91.8036 24.5678 91.3871 23.4787 90.9324 22.761C90.4778 22.0434 90.0005 21.6845 89.4922 21.6845C89.3454 21.6845 89.2155 21.6947 89.1053 21.715C89.6617 24.5349 90.2194 27.3547 90.7757 30.1746C90.883 30.1949 91.0383 30.2165 91.1979 30.2051C92.9473 30.0821 92.2498 26.9351 92.0662 25.96Z" fill="white"/>
<path d="M103.624 23.0797C103.157 22.3317 102.631 21.9576 102.04 21.9576H99.0379C100.477 27.3958 101.914 32.8327 103.353 38.2696C103.439 38.5929 103.608 38.8718 103.861 39.1039C104.115 39.3359 104.371 39.4525 104.628 39.4525C104.69 39.6833 104.721 39.7987 104.783 40.0282H99.5377C99.4826 39.7974 99.4558 39.682 99.4007 39.4525C100.006 39.4525 100.213 39.0582 100.021 38.2696C98.5818 32.3775 97.143 26.4854 95.7042 20.592C95.6153 20.2282 95.4684 19.9403 95.2637 19.7286C95.0589 19.5168 94.8443 19.4103 94.6184 19.4103C94.5633 19.1796 94.5365 19.0642 94.4814 18.8347H100.838C101.544 18.8347 101.965 18.7637 102.1 18.6229C102.747 20.0405 103.399 21.4542 104.057 22.868C103.885 22.9529 103.798 22.9948 103.625 23.0797H103.624Z" fill="white"/>
<path d="M120 40.0272H115.196C115.12 39.7965 115.081 39.6811 115.004 39.4516C115.445 39.4516 115.593 39.2398 115.451 38.8151C115.267 38.2699 114.961 37.5522 114.536 36.6621C114.214 36.8853 113.735 36.9956 113.103 36.9956C112.433 36.9956 111.847 36.8853 111.343 36.6621C111.545 37.8147 111.689 38.5323 111.778 38.8151C111.912 39.2398 112.199 39.4516 112.639 39.4516C112.713 39.6823 112.75 39.7977 112.823 40.0272H108.267C108.199 39.7965 108.166 39.6811 108.098 39.4516C108.502 39.4516 108.666 39.1688 108.59 38.6021C107.652 32.6174 106.633 26.6455 105.533 20.6824C105.491 20.4402 105.44 20.2272 105.383 20.0459C105.251 19.6211 105.04 19.4094 104.749 19.4094C104.679 19.1786 104.642 19.0632 104.571 18.8337H109.845C109.924 19.0645 109.964 19.1799 110.044 19.4094C109.738 19.4094 109.654 19.6122 109.791 20.0154C109.827 20.1169 109.921 20.3489 110.078 20.7128C112.864 26.6822 115.717 32.625 118.64 38.5412C118.948 39.1473 119.332 39.4503 119.791 39.4503C119.874 39.6811 119.917 39.7965 120 40.0259V40.0272ZM113.146 33.4783C111.558 29.847 109.988 26.208 108.439 22.5627H108.267C109.101 26.1979 109.914 29.8356 110.708 33.4783C111.098 33.7015 111.558 33.8118 112.09 33.8118C112.55 33.8118 112.905 33.7015 113.148 33.4783H113.146Z" fill="white"/>
</svg>
