<svg width="32" height="32" viewBox="0 0 32 32" fill="none" xmlns="http://www.w3.org/2000/svg">
<path d="M16 0C24.8366 0 32 7.16344 32 16C32 24.8366 24.8366 32 16 32C7.16344 32 0 24.8366 0 16C0 7.16344 7.16344 0 16 0ZM24.168 9.61328C24.3089 8.02179 22.6325 8.65574 22.6006 8.66797C17.4221 10.7951 11.5781 13.0644 6.82715 15.2861C4.87924 15.9952 6.01953 16.7041 6.01953 16.7041L9.10742 17.6494C10.5327 18.0748 11.293 17.6025 11.293 17.6025L17.9443 13.1113C20.3195 11.5044 19.7498 12.8283 19.1797 13.3955L14.1904 18.1221C13.4304 18.7838 13.811 19.3511 14.1436 19.6348C15.3313 20.6747 18.7045 22.8025 18.8945 22.9443C19.1328 23.1339 20.4147 23.9836 21.2695 23.7949C22.122 23.6064 22.2191 22.5253 22.2197 22.5186L23.3604 15.0967C23.6929 12.5914 24.1205 10.275 24.168 9.61328Z" fill="white"/>
</svg>
